<svg id="visual" viewBox="0 0 960 540" width="960" height="540" xmlns="http://www.w3.org/2000/svg" xmlns:xlink="http://www.w3.org/1999/xlink" version="1.1"><g stroke-width="1" stroke-linejoin="bevel"><path d="M269 234L346 0L0 0Z" fill="#fdfdfd" stroke="#ff0000"></path><path d="M0 0L0 251L269 234Z" fill="#fdfdfd" stroke="#ff0000"></path><path d="M269 234L579 0L346 0Z" fill="#ffffff" stroke="#ff0000"></path><path d="M0 251L0 540L269 234Z" fill="#fcfcfc" stroke="#ff0000"></path><path d="M269 234L698 303L579 0Z" fill="#fcfcfc" stroke="#ff0000"></path><path d="M0 540L356 540L269 234Z" fill="#fefefe" stroke="#ff0000"></path><path d="M356 540L698 303L269 234Z" fill="#ffffff" stroke="#ff0000"></path><path d="M356 540L710 540L698 303Z" fill="#ffffff" stroke="#ff0000"></path><path d="M698 303L960 0L579 0Z" fill="#fdfdfd" stroke="#ff0000"></path><path d="M960 325L960 0L698 303Z" fill="#fefefe" stroke="#ff0000"></path><path d="M710 540L960 325L698 303Z" fill="#fefefe" stroke="#ff0000"></path><path d="M710 540L960 540L960 325Z" fill="#fcfcfc" stroke="#ff0000"></path></g></svg>