<svg id="visual" viewBox="0 0 960 540" width="960" height="540" xmlns="http://www.w3.org/2000/svg" xmlns:xlink="http://www.w3.org/1999/xlink" version="1.1"><rect width="960" height="540" fill="#ffffff"></rect><g><g transform="translate(655 172)"><path d="M0 -112.6L97.5 -56.3L97.5 56.3L0 112.6L-97.5 56.3L-97.5 -56.3Z" fill="none" stroke="#7b3100" stroke-width="2"></path></g><g transform="translate(342 355)"><path d="M0 -66L57.2 -33L57.2 33L0 66L-57.2 33L-57.2 -33Z" fill="none" stroke="#7b3100" stroke-width="2"></path></g><g transform="translate(26 375)"><path d="M0 -71L61.5 -35.5L61.5 35.5L0 71L-61.5 35.5L-61.5 -35.5Z" fill="none" stroke="#7b3100" stroke-width="2"></path></g><g transform="translate(240 139)"><path d="M0 -35L30.3 -17.5L30.3 17.5L0 35L-30.3 17.5L-30.3 -17.5Z" stroke="#7b3100" fill="none" stroke-width="2"></path></g><g transform="translate(871 306)"><path d="M0 -102L88.3 -51L88.3 51L0 102L-88.3 51L-88.3 -51Z" stroke="#7b3100" fill="none" stroke-width="2"></path></g><g transform="translate(634 408)"><path d="M0 -109L94.4 -54.5L94.4 54.5L0 109L-94.4 54.5L-94.4 -54.5Z" stroke="#7b3100" fill="none" stroke-width="2"></path></g><g transform="translate(871 52)"><path d="M0 -103L89.2 -51.5L89.2 51.5L0 103L-89.2 51.5L-89.2 -51.5Z" stroke="#7b3100" fill="none" stroke-width="2"></path></g><g transform="translate(484 18)"><path d="M0 -105L90.9 -52.5L90.9 52.5L0 105L-90.9 52.5L-90.9 -52.5Z" stroke="#7b3100" fill="none" stroke-width="2"></path></g><g transform="translate(4 20)"><path d="M0 -65L56.3 -32.5L56.3 32.5L0 65L-56.3 32.5L-56.3 -32.5Z" stroke="#7b3100" fill="none" stroke-width="2"></path></g><g transform="translate(938 525)"><path d="M0 -28L24.2 -14L24.2 14L0 28L-24.2 14L-24.2 -14Z" stroke="#7b3100" fill="none" stroke-width="2"></path></g><g transform="translate(204 536)"><path d="M0 -79L68.4 -39.5L68.4 39.5L0 79L-68.4 39.5L-68.4 -39.5Z" stroke="#7b3100" fill="none" stroke-width="2"></path></g></g></svg>